# xmcd
#
# Track frame offsets: 
#        150
#        19375
#        38701
#        61865
#        80347
#
# Disc length: 1403 seconds
#
# Revision: 0
# Processed by: cddbd v1.4PL0 Copyright (c) Steve Scherf et al.
# Submitted via: ExactAudioCopy v0.90b4
#
DISCID=34057905
DTITLE=Joy Denalane - Was Auch Immer
DYEAR=2002
DGENRE=Soul
TTITLE0=Was Auch Immer (Radio Edit)
TTITLE1=Was Auch Immer (Smooth As Ice Mix)
TTITLE2=Was Auch Immer (Unity-In-Session Mix)
TTITLE3=Kinderlied (Radio Edit)
TTITLE4=Was Auch Immer (Album Version)
EXTD=
EXTT0=
EXTT1=
EXTT2=
EXTT3=
EXTT4=
PLAYORDER=
